<svg xmlns="http://www.w3.org/2000/svg" xmlns:xlink="http://www.w3.org/1999/xlink" width="63" zoomAndPan="magnify" viewBox="0 0 47.25 47.250001" height="63" preserveAspectRatio="xMidYMid meet" version="1.0"><defs><clipPath id="5b271c1d01"><path d="M 0 0 L 46.511719 0 L 46.511719 46.511719 L 0 46.511719 Z M 0 0 " clip-rule="nonzero"/></clipPath></defs><g clip-path="url(#5b271c1d01)"><path fill="#1a4789" d="M 46.515625 23.257812 C 46.515625 24.019531 46.476562 24.777344 46.402344 25.535156 C 46.328125 26.292969 46.214844 27.046875 46.066406 27.792969 C 45.917969 28.539062 45.734375 29.277344 45.511719 30.007812 C 45.292969 30.734375 45.035156 31.453125 44.742188 32.15625 C 44.453125 32.859375 44.125 33.546875 43.769531 34.21875 C 43.410156 34.890625 43.019531 35.542969 42.59375 36.175781 C 42.171875 36.808594 41.71875 37.421875 41.234375 38.011719 C 40.75 38.597656 40.242188 39.164062 39.703125 39.699219 C 39.164062 40.238281 38.601562 40.75 38.011719 41.234375 C 37.421875 41.71875 36.8125 42.171875 36.179688 42.59375 C 35.546875 43.015625 34.890625 43.40625 34.222656 43.765625 C 33.550781 44.125 32.859375 44.449219 32.15625 44.742188 C 31.453125 45.035156 30.738281 45.289062 30.007812 45.511719 C 29.28125 45.730469 28.542969 45.917969 27.792969 46.066406 C 27.046875 46.214844 26.296875 46.324219 25.539062 46.402344 C 24.78125 46.476562 24.019531 46.511719 23.257812 46.511719 C 22.496094 46.511719 21.738281 46.476562 20.976562 46.402344 C 20.21875 46.324219 19.46875 46.214844 18.722656 46.066406 C 17.972656 45.917969 17.234375 45.730469 16.507812 45.511719 C 15.777344 45.289062 15.0625 45.035156 14.359375 44.742188 C 13.65625 44.449219 12.964844 44.125 12.296875 43.765625 C 11.625 43.40625 10.972656 43.015625 10.335938 42.59375 C 9.703125 42.171875 9.09375 41.71875 8.503906 41.234375 C 7.914062 40.75 7.351562 40.238281 6.8125 39.699219 C 6.273438 39.164062 5.765625 38.597656 5.28125 38.011719 C 4.796875 37.421875 4.34375 36.808594 3.921875 36.175781 C 3.496094 35.542969 3.105469 34.890625 2.746094 34.21875 C 2.390625 33.546875 2.0625 32.859375 1.773438 32.15625 C 1.480469 31.453125 1.222656 30.734375 1.003906 30.007812 C 0.78125 29.277344 0.597656 28.539062 0.449219 27.792969 C 0.300781 27.046875 0.1875 26.292969 0.113281 25.535156 C 0.0390625 24.777344 0 24.019531 0 23.257812 C 0 22.496094 0.0390625 21.734375 0.113281 20.976562 C 0.1875 20.21875 0.300781 19.464844 0.449219 18.71875 C 0.597656 17.972656 0.78125 17.234375 1.003906 16.503906 C 1.222656 15.777344 1.480469 15.058594 1.773438 14.355469 C 2.0625 13.652344 2.390625 12.964844 2.746094 12.292969 C 3.105469 11.621094 3.496094 10.96875 3.921875 10.335938 C 4.34375 9.703125 4.796875 9.089844 5.28125 8.503906 C 5.765625 7.914062 6.273438 7.351562 6.8125 6.8125 C 7.351562 6.273438 7.914062 5.761719 8.503906 5.277344 C 9.09375 4.796875 9.703125 4.34375 10.335938 3.917969 C 10.972656 3.496094 11.625 3.105469 12.296875 2.746094 C 12.964844 2.386719 13.65625 2.0625 14.359375 1.769531 C 15.0625 1.480469 15.777344 1.222656 16.507812 1 C 17.234375 0.78125 17.972656 0.597656 18.722656 0.445312 C 19.46875 0.296875 20.21875 0.1875 20.976562 0.113281 C 21.738281 0.0390625 22.496094 0 23.257812 0 C 24.019531 0 24.78125 0.0390625 25.539062 0.113281 C 26.296875 0.1875 27.046875 0.296875 27.792969 0.445312 C 28.542969 0.597656 29.28125 0.78125 30.007812 1 C 30.738281 1.222656 31.453125 1.480469 32.15625 1.769531 C 32.859375 2.0625 33.550781 2.386719 34.222656 2.746094 C 34.890625 3.105469 35.546875 3.496094 36.179688 3.917969 C 36.8125 4.34375 37.421875 4.796875 38.011719 5.277344 C 38.601562 5.761719 39.164062 6.273438 39.703125 6.8125 C 40.242188 7.351562 40.75 7.914062 41.234375 8.503906 C 41.71875 9.089844 42.171875 9.703125 42.59375 10.335938 C 43.019531 10.96875 43.410156 11.621094 43.769531 12.292969 C 44.125 12.964844 44.453125 13.652344 44.742188 14.355469 C 45.035156 15.058594 45.292969 15.777344 45.511719 16.503906 C 45.734375 17.234375 45.917969 17.972656 46.066406 18.71875 C 46.214844 19.464844 46.328125 20.21875 46.402344 20.976562 C 46.476562 21.734375 46.515625 22.496094 46.515625 23.257812 Z M 46.515625 23.257812 " fill-opacity="1" fill-rule="nonzero"/></g><path fill="#ffffff" d="M 29.09375 24.453125 L 29.753906 19.355469 L 24.703125 19.355469 L 24.703125 16.097656 C 24.703125 14.625 25.117188 13.617188 27.230469 13.617188 L 29.929688 13.617188 L 29.929688 9.054688 C 29.464844 8.992188 27.863281 8.855469 25.996094 8.855469 C 22.105469 8.855469 19.441406 11.230469 19.441406 15.59375 L 19.441406 19.355469 L 15.039062 19.355469 L 15.039062 24.453125 L 19.441406 24.453125 L 19.441406 37.535156 L 24.703125 37.535156 L 24.703125 24.453125 Z M 29.09375 24.453125 " fill-opacity="1" fill-rule="nonzero"/></svg>