<svg xmlns="http://www.w3.org/2000/svg" xmlns:xlink="http://www.w3.org/1999/xlink" width="63" zoomAndPan="magnify" viewBox="0 0 47.25 47.250001" height="63" preserveAspectRatio="xMidYMid meet" version="1.0"><defs><clipPath id="c16e4564c5"><path d="M 0 0 L 46.511719 0 L 46.511719 46.511719 L 0 46.511719 Z M 0 0 " clip-rule="nonzero"/></clipPath></defs><g clip-path="url(#c16e4564c5)"><path fill="#0277b5" d="M 42.625 0 L 3.910156 0 C 1.769531 0 0.046875 1.746094 0.046875 3.863281 L 0.046875 42.648438 C 0.046875 44.789062 1.792969 46.511719 3.910156 46.511719 L 42.601562 46.511719 C 44.742188 46.511719 46.464844 44.765625 46.464844 42.648438 L 46.464844 3.863281 C 46.488281 1.746094 44.765625 0 42.625 0 Z M 13.796875 38.367188 L 6.933594 38.367188 L 6.933594 17.753906 L 13.796875 17.753906 Z M 10.355469 15.261719 C 8.191406 15.261719 6.445312 13.519531 6.445312 11.355469 C 6.445312 9.191406 8.191406 7.445312 10.355469 7.445312 C 12.519531 7.445312 14.261719 9.191406 14.261719 11.355469 C 14.261719 13.519531 12.519531 15.261719 10.355469 15.261719 Z M 39.625 38.367188 L 32.738281 38.367188 L 32.574219 26.128906 C 32.574219 26.128906 32.738281 22.871094 29.175781 22.894531 C 25.617188 22.917969 25.128906 26.128906 25.128906 26.128906 L 25.128906 38.367188 L 18.195312 38.367188 L 18.195312 17.753906 L 24.851562 17.753906 L 24.851562 20.589844 C 24.851562 20.589844 25.128906 19.660156 26.664062 18.566406 C 28.199219 17.472656 30.738281 17.242188 31.828125 17.289062 C 32.921875 17.335938 34.414062 17.148438 36.902344 18.871094 C 39.578125 20.707031 39.648438 25.523438 39.648438 25.523438 Z M 39.625 38.367188 " fill-opacity="1" fill-rule="nonzero"/></g></svg>