<svg width="29" height="28" viewBox="0 0 29 28" fill="none" xmlns="http://www.w3.org/2000/svg">
<g id="svg-copy" filter="url(#filter0_d_7_17)">
<path d="M11.4118 16C10.7324 16 10.1507 15.8042 9.66691 15.4125C9.18309 15.0208 8.94118 14.55 8.94118 14V2C8.94118 1.45 9.18309 0.979167 9.66691 0.5875C10.1507 0.195833 10.7324 0 11.4118 0H22.5294C23.2088 0 23.7904 0.195833 24.2743 0.5875C24.7581 0.979167 25 1.45 25 2V14C25 14.55 24.7581 15.0208 24.2743 15.4125C23.7904 15.8042 23.2088 16 22.5294 16H11.4118ZM11.4118 14H22.5294V2H11.4118V14ZM6.47059 20C5.79118 20 5.20956 19.8042 4.72574 19.4125C4.24191 19.0208 4 18.55 4 18V4H6.47059V18H20.0588V20H6.47059Z" fill="#D2E3C8"/>
</g>
<defs>
<filter id="filter0_d_7_17" x="0" y="0" width="29" height="28" filterUnits="userSpaceOnUse" color-interpolation-filters="sRGB">
<feFlood flood-opacity="0" result="BackgroundImageFix"/>
<feColorMatrix in="SourceAlpha" type="matrix" values="0 0 0 0 0 0 0 0 0 0 0 0 0 0 0 0 0 0 127 0" result="hardAlpha"/>
<feOffset dy="4"/>
<feGaussianBlur stdDeviation="2"/>
<feComposite in2="hardAlpha" operator="out"/>
<feColorMatrix type="matrix" values="0 0 0 0 0 0 0 0 0 0 0 0 0 0 0 0 0 0 0.25 0"/>
<feBlend mode="normal" in2="BackgroundImageFix" result="effect1_dropShadow_7_17"/>
<feBlend mode="normal" in="SourceGraphic" in2="effect1_dropShadow_7_17" result="shape"/>
</filter>
</defs>
</svg>
