<svg xmlns="http://www.w3.org/2000/svg" xmlns:xlink="http://www.w3.org/1999/xlink" width="63" zoomAndPan="magnify" viewBox="0 0 47.25 47.250001" height="63" preserveAspectRatio="xMidYMid meet" version="1.0"><defs><clipPath id="22051db498"><path d="M 0 0 L 46.484375 0 L 46.484375 46.511719 L 0 46.511719 Z M 0 0 " clip-rule="nonzero"/></clipPath></defs><g clip-path="url(#22051db498)"><path fill="#000000" d="M 46.464844 23.253906 C 46.464844 24.015625 46.429688 24.777344 46.351562 25.535156 C 46.277344 26.292969 46.167969 27.042969 46.019531 27.792969 C 45.871094 28.539062 45.6875 29.277344 45.464844 30.003906 C 45.242188 30.734375 44.988281 31.449219 44.695312 32.152344 C 44.40625 32.859375 44.078125 33.546875 43.722656 34.21875 C 43.363281 34.890625 42.972656 35.542969 42.546875 36.175781 C 42.125 36.808594 41.671875 37.417969 41.191406 38.007812 C 40.707031 38.597656 40.195312 39.160156 39.660156 39.699219 C 39.121094 40.238281 38.558594 40.746094 37.96875 41.230469 C 37.378906 41.714844 36.769531 42.167969 36.136719 42.589844 C 35.503906 43.015625 34.851562 43.40625 34.179688 43.765625 C 33.511719 44.121094 32.824219 44.449219 32.121094 44.738281 C 31.417969 45.03125 30.699219 45.289062 29.972656 45.507812 C 29.242188 45.730469 28.507812 45.914062 27.761719 46.0625 C 27.011719 46.210938 26.261719 46.324219 25.503906 46.398438 C 24.746094 46.472656 23.988281 46.507812 23.226562 46.507812 C 22.464844 46.507812 21.707031 46.472656 20.949219 46.398438 C 20.191406 46.324219 19.4375 46.210938 18.691406 46.0625 C 17.945312 45.914062 17.207031 45.730469 16.480469 45.507812 C 15.753906 45.289062 15.035156 45.03125 14.332031 44.738281 C 13.628906 44.449219 12.941406 44.121094 12.269531 43.765625 C 11.601562 43.40625 10.949219 43.015625 10.316406 42.589844 C 9.683594 42.167969 9.070312 41.714844 8.484375 41.230469 C 7.894531 40.746094 7.332031 40.238281 6.792969 39.699219 C 6.253906 39.160156 5.746094 38.597656 5.261719 38.007812 C 4.78125 37.417969 4.328125 36.808594 3.902344 36.175781 C 3.480469 35.542969 3.089844 34.890625 2.730469 34.21875 C 2.371094 33.546875 2.046875 32.859375 1.757812 32.152344 C 1.464844 31.449219 1.207031 30.734375 0.988281 30.003906 C 0.765625 29.277344 0.582031 28.539062 0.433594 27.792969 C 0.285156 27.042969 0.171875 26.292969 0.0976562 25.535156 C 0.0234375 24.777344 -0.0117188 24.015625 -0.0117188 23.253906 C -0.0117188 22.492188 0.0234375 21.734375 0.0976562 20.976562 C 0.171875 20.21875 0.285156 19.464844 0.433594 18.71875 C 0.582031 17.972656 0.765625 17.234375 0.988281 16.503906 C 1.207031 15.777344 1.464844 15.058594 1.757812 14.355469 C 2.046875 13.652344 2.371094 12.964844 2.730469 12.292969 C 3.089844 11.621094 3.480469 10.96875 3.902344 10.335938 C 4.328125 9.703125 4.78125 9.089844 5.261719 8.503906 C 5.746094 7.914062 6.253906 7.351562 6.792969 6.8125 C 7.332031 6.273438 7.894531 5.761719 8.484375 5.277344 C 9.070312 4.796875 9.683594 4.34375 10.316406 3.917969 C 10.949219 3.496094 11.601562 3.105469 12.269531 2.746094 C 12.941406 2.386719 13.628906 2.0625 14.332031 1.769531 C 15.035156 1.480469 15.753906 1.222656 16.480469 1 C 17.207031 0.78125 17.945312 0.59375 18.691406 0.445312 C 19.4375 0.296875 20.191406 0.1875 20.949219 0.113281 C 21.707031 0.0390625 22.464844 0 23.226562 0 C 23.988281 0 24.746094 0.0390625 25.503906 0.113281 C 26.261719 0.1875 27.011719 0.296875 27.761719 0.445312 C 28.507812 0.59375 29.242188 0.78125 29.972656 1 C 30.699219 1.222656 31.417969 1.480469 32.121094 1.769531 C 32.824219 2.0625 33.511719 2.386719 34.179688 2.746094 C 34.851562 3.105469 35.503906 3.496094 36.136719 3.917969 C 36.769531 4.34375 37.378906 4.796875 37.96875 5.277344 C 38.558594 5.761719 39.121094 6.273438 39.660156 6.8125 C 40.195312 7.351562 40.707031 7.914062 41.191406 8.503906 C 41.671875 9.089844 42.125 9.703125 42.546875 10.335938 C 42.972656 10.96875 43.363281 11.621094 43.722656 12.292969 C 44.078125 12.964844 44.40625 13.652344 44.695312 14.355469 C 44.988281 15.058594 45.242188 15.777344 45.464844 16.503906 C 45.6875 17.234375 45.871094 17.972656 46.019531 18.71875 C 46.167969 19.464844 46.277344 20.21875 46.351562 20.976562 C 46.429688 21.734375 46.464844 22.492188 46.464844 23.253906 Z M 46.464844 23.253906 " fill-opacity="1" fill-rule="nonzero"/></g><path fill="#ffffff" d="M 26.089844 21.070312 L 37.457031 7.960938 L 34.78125 7.960938 L 24.890625 19.339844 L 17.175781 8.25 L 8.390625 8.25 L 20.03125 24.933594 L 8.203125 38.539062 L 10.949219 38.539062 L 21.242188 26.667969 L 29.53125 38.550781 L 38.25 38.550781 Z M 22.488281 25.222656 L 21.28125 23.492188 L 11.9375 10.097656 L 16.210938 10.097656 L 23.636719 20.78125 L 24.839844 22.511719 L 34.707031 36.699219 L 30.496094 36.699219 Z M 22.488281 25.222656 " fill-opacity="1" fill-rule="nonzero"/></svg>